<?xml version="1.0" encoding="UTF-8"?>
<svg width="19px" height="27px" viewBox="0 0 19 27" version="1.1" xmlns="http://www.w3.org/2000/svg" xmlns:xlink="http://www.w3.org/1999/xlink">
    <title>CDCE95C0-3AF4-45E2-8F5B-098D0D237EC0@1x</title>
    <defs>
        <path d="M12.469,0.292 L0.594,0.292 C0.266,0.292 0,0.554 0,0.876 L0,0.876 L0,18.404 C0,18.727 0.266,18.989 0.594,18.989 L0.594,18.989 L2.969,18.989 L2.969,21.91 C2.969,22.233 3.235,22.494 3.563,22.495 L3.563,22.495 L5.938,22.495 L5.938,25.415 C5.938,25.739 6.203,26 6.532,26 L6.532,26 L18.406,26 C18.734,26 19,25.739 19,25.415 L19,25.415 L19,7.888 C19,7.565 18.734,7.303 18.406,7.303 L18.406,7.303 L16.032,7.303 L16.032,4.382 C16.032,4.059 15.765,3.798 15.438,3.798 L15.438,3.798 L13.063,3.798 L13.063,0.876 C13.064,0.855 13.064,0.834 13.063,0.812 L13.063,0.812 C13.029,0.516 12.775,0.292 12.473,0.292 L12.473,0.292 C12.472,0.292 12.47,0.292 12.469,0.292 L12.469,0.292 Z M1.187,1.461 L11.875,1.461 L11.875,4.282 C11.869,4.315 11.866,4.348 11.866,4.382 L11.866,4.382 L11.875,17.82 L3.563,17.82 L1.187,17.82 L1.187,1.461 Z M12.525,18.989 C12.546,18.987 12.568,18.984 12.59,18.98 L12.59,18.98 C12.87,18.922 13.068,18.676 13.063,18.395 L13.063,18.395 L13.063,4.967 L14.844,4.967 L14.844,7.787 C14.837,7.82 14.834,7.854 14.834,7.888 L14.834,7.888 L14.844,21.326 L4.157,21.326 L4.157,18.989 L12.469,18.989 C12.478,18.99 12.488,18.99 12.497,18.99 L12.497,18.99 C12.506,18.99 12.515,18.99 12.525,18.989 L12.525,18.989 Z M7.126,22.495 L15.438,22.495 C15.456,22.495 15.475,22.495 15.494,22.495 L15.494,22.495 C15.516,22.492 15.536,22.49 15.558,22.485 L15.558,22.485 C15.839,22.428 16.038,22.183 16.032,21.901 L16.032,21.901 L16.032,8.472 L17.813,8.472 L17.813,24.831 L7.126,24.831 L7.126,22.495 Z" id="path-1"></path>
    </defs>
    <g id="---Developers" stroke="none" stroke-width="1" fill="none" fill-rule="evenodd">
        <g id="Developers---Governance" transform="translate(-39.000000, -315.000000)">
            <g id="Group-12" transform="translate(32.000000, 223.000000)">
                <g id="Group-11" transform="translate(7.000000, 92.000000)">
                    <g id="Group-5" transform="translate(2.000000, 1.707900)" fill="#90B2DB">
                        <path d="M8.7045,0.1548 L0.5305,0.1548 C0.5305,1.1588 1.3445,1.9718 2.3485,1.9718 L6.8875,1.9718 C7.8915,1.9718 8.7045,1.1588 8.7045,0.1548" id="Fill-1"></path>
                        <path d="M0.2192,17.1801 L8.7042,17.1801 C8.7042,16.1771 7.8912,15.3631 6.8872,15.3631 L2.0352,15.3631 C1.0322,15.3631 0.2192,16.1771 0.2192,17.1801" id="Fill-3"></path>
                    </g>
                    <g id="Group-8" transform="translate(0.000000, 0.707900)">
                        <mask id="mask-2" fill="white">
                            <use xlink:href="#path-1"></use>
                        </mask>
                        <g id="Clip-7"></g>
                        <polygon id="Fill-6" fill="#432C85" mask="url(#mask-2)" points="-5 31 24 31 24 -4.708 -5 -4.708"></polygon>
                    </g>
                    <path d="M9.3901,7.7254 L5.9331,12.5684 C5.7791,12.7854 5.4701,12.8174 5.2741,12.6384 L3.2671,10.8064" id="Stroke-9" stroke="#A0D6C5" stroke-linecap="round"></path>
                </g>
            </g>
        </g>
    </g>
</svg>