<?xml version="1.0" encoding="UTF-8"?>
<svg width="30px" height="30px" viewBox="0 0 30 30" version="1.1" xmlns="http://www.w3.org/2000/svg" xmlns:xlink="http://www.w3.org/1999/xlink">
    <title>D6336FDD-AABC-4E28-BE4D-E805D03BC729</title>
    <defs>
        <path d="M11.8127368,0.280769231 L0.562736842,0.280769231 C0.252,0.280769231 0,0.532692308 0,0.842307692 L0,0.842307692 L0,17.6961538 C0,18.0067308 0.252,18.2586538 0.562736842,18.2586538 L0.562736842,18.2586538 L2.81273684,18.2586538 L2.81273684,21.0673077 C2.81273684,21.3778846 3.06473684,21.6288462 3.37547368,21.6298077 L3.37547368,21.6298077 L5.62547368,21.6298077 L5.62547368,24.4375 C5.62547368,24.7490385 5.87652632,25 6.18821053,25 L6.18821053,25 L17.4372632,25 C17.748,25 18,24.7490385 18,24.4375 L18,24.4375 L18,7.58461538 C18,7.27403846 17.748,7.02211538 17.4372632,7.02211538 L17.4372632,7.02211538 L15.1882105,7.02211538 L15.1882105,4.21346154 C15.1882105,3.90288462 14.9352632,3.65192308 14.6254737,3.65192308 L14.6254737,3.65192308 L12.3754737,3.65192308 L12.3754737,0.842307692 C12.3764211,0.822115385 12.3764211,0.801923077 12.3754737,0.780769231 L12.3754737,0.780769231 C12.3432632,0.496153846 12.1026316,0.280769231 11.8165263,0.280769231 L11.8165263,0.280769231 C11.8155789,0.280769231 11.8136842,0.280769231 11.8127368,0.280769231 L11.8127368,0.280769231 Z M1.12452632,1.40480769 L11.25,1.40480769 L11.25,4.11730769 C11.2443158,4.14903846 11.2414737,4.18076923 11.2414737,4.21346154 L11.2414737,4.21346154 L11.25,17.1346154 L3.37547368,17.1346154 L1.12452632,17.1346154 L1.12452632,1.40480769 Z M11.8657895,18.2586538 C11.8856842,18.2567308 11.9065263,18.2538462 11.9273684,18.25 L11.9273684,18.25 C12.1926316,18.1942308 12.3802105,17.9576923 12.3754737,17.6875 L12.3754737,17.6875 L12.3754737,4.77596154 L14.0627368,4.77596154 L14.0627368,7.4875 C14.0561053,7.51923077 14.0532632,7.55192308 14.0532632,7.58461538 L14.0532632,7.58461538 L14.0627368,20.5057692 L3.93821053,20.5057692 L3.93821053,18.2586538 L11.8127368,18.2586538 C11.8212632,18.2596154 11.8307368,18.2596154 11.8392632,18.2596154 L11.8392632,18.2596154 C11.8477895,18.2596154 11.8563158,18.2596154 11.8657895,18.2586538 L11.8657895,18.2586538 Z M6.75094737,21.6298077 L14.6254737,21.6298077 C14.6425263,21.6298077 14.6605263,21.6298077 14.6785263,21.6298077 L14.6785263,21.6298077 C14.6993684,21.6269231 14.7183158,21.625 14.7391579,21.6201923 L14.7391579,21.6201923 C15.0053684,21.5653846 15.1938947,21.3298077 15.1882105,21.0586538 L15.1882105,21.0586538 L15.1882105,8.14615385 L16.8754737,8.14615385 L16.8754737,23.8759615 L6.75094737,23.8759615 L6.75094737,21.6298077 Z" id="path-1"></path>
    </defs>
    <g id="---Developers" stroke="none" stroke-width="1" fill="none" fill-rule="evenodd">
        <g id="Icons" transform="translate(-994.000000, -1123.000000)">
            <g id="Icon/Home" transform="translate(994.000000, 1123.000000)">
                <g id="Group-11" transform="translate(6.000000, 3.000000)">
                    <g id="Group-5" transform="translate(2.000000, 1.000000)" fill="#A5AEBF">
                        <path d="M8.7045,0.1462 L0.5305,0.1462 C0.5305,1.09442222 1.3445,1.86225556 2.3485,1.86225556 L6.8875,1.86225556 C7.8915,1.86225556 8.7045,1.09442222 8.7045,0.1462" id="Fill-1"></path>
                        <path d="M0.2192,16.22565 L8.7042,16.22565 C8.7042,15.2783722 7.8912,14.5095944 6.8872,14.5095944 L2.0352,14.5095944 C1.0322,14.5095944 0.2192,15.2783722 0.2192,16.22565" id="Fill-3"></path>
                    </g>
                    <g id="Group-8">
                        <mask id="mask-2" fill="white">
                            <use xlink:href="#path-1"></use>
                        </mask>
                        <g id="Clip-7"></g>
                        <polygon id="Fill-6" fill="#A5AEBF" mask="url(#mask-2)" points="-4.73684211 29.8076923 22.7368421 29.8076923 22.7368421 -4.52692308 -4.73684211 -4.52692308"></polygon>
                    </g>
                    <path d="M9,6 L5.61244488,10.8151145 C5.46153846,11.0308651 5.15874571,11.0626808 4.966683,10.8847115 L3,9.06325995" id="Stroke-9" stroke="#FFFFFF" stroke-linecap="round"></path>
                </g>
            </g>
        </g>
    </g>
</svg>