<?xml version="1.0" encoding="UTF-8"?>
<svg width="18px" height="18px" viewBox="0 0 18 18" version="1.1" xmlns="http://www.w3.org/2000/svg" xmlns:xlink="http://www.w3.org/1999/xlink">
    <!-- Generator: Sketch 64 (93537) - https://sketch.com -->
    <title>Check</title>
    <desc>Created with Sketch.</desc>
    <g id="Documentation" stroke="none" stroke-width="1" fill="none" fill-rule="evenodd">
        <path d="M8.99997854,17.9687453 C13.815206,17.9687453 17.7187078,14.0652436 17.7187078,9.25001609 C17.7187078,4.43478862 13.815206,0.53128688 8.99997854,0.53128688 C4.18475107,0.53128688 0.281249329,4.43478862 0.281249329,9.25001609 C0.281249329,14.0652436 4.18475107,17.9687453 8.99997854,17.9687453 Z M7.1959591,13.8664945 L3.53971782,10.2102532 C3.32009478,9.99059584 3.32009478,9.63439933 3.53971782,9.41474196 L4.33522907,8.61926503 C4.55488645,8.39960766 4.91108296,8.39960766 5.13074033,8.61926503 L7.5937319,11.0822909 L12.8692168,5.80680607 C13.0889085,5.58711436 13.445105,5.58711436 13.664728,5.80680607 L14.4602393,6.602283 C14.6798623,6.82194037 14.6798623,7.17813688 14.4602393,7.39779425 L7.99150469,13.8665288 C7.77181298,14.0861519 7.41565081,14.0861519 7.1959591,13.8664945 Z" id="Check" fill="#422D8E" fill-rule="nonzero"></path>
    </g>
</svg>