<?xml version="1.0" encoding="UTF-8"?>
<svg width="30px" height="30px" viewBox="0 0 30 30" version="1.1" xmlns="http://www.w3.org/2000/svg" xmlns:xlink="http://www.w3.org/1999/xlink">
    <title>BF4C95F1-1C42-4E82-87D0-BCDCA4E6011C</title>
    <defs>
        <polygon id="path-1" points="0.4158 0.5988 14.443 0.5988 14.443 14.6258 0.4158 14.6258"></polygon>
        <polygon id="path-3" points="0.0004 0.084 15.0404 0.084 15.0404 18.9997 0.0004 18.9997"></polygon>
    </defs>
    <g id="---Developers" stroke="none" stroke-width="1" fill="none" fill-rule="evenodd">
        <g id="Icons" transform="translate(-1149.000000, -1123.000000)">
            <g id="Icon/Home" transform="translate(1149.000000, 1123.000000)">
                <g id="Group-23" transform="translate(4.000000, 5.000000)">
                    <g id="Group-3" transform="translate(7.000000, 4.916000)">
                        <mask id="mask-2" fill="white">
                            <use xlink:href="#path-1"></use>
                        </mask>
                        <g id="Clip-2"></g>
                        <path d="M8.1948,8.3718 C7.4668,9.0988 6.4988,9.4728 5.5298,9.4728 C4.5608,9.4728 3.5918,9.0988 2.8658,8.3718 C1.3898,6.8958 1.3898,4.5178 2.8658,3.0428 C3.5918,2.3158 4.5608,1.9418 5.5298,1.9418 C6.4988,1.9418 7.4668,2.3158 8.1948,3.0428 C9.6698,4.5178 9.6698,6.9178 8.1948,8.3718 M14.1628,12.9738 L10.3518,9.1428 L10.1548,9.3408 L9.6038,8.7898 C11.1238,6.7868 10.9688,3.9238 9.1408,2.0958 C8.1508,1.1048 6.8298,0.5988 5.5298,0.5988 C4.2308,0.5988 2.9098,1.1048 1.9188,2.0958 C-0.0852,4.0998 -0.0852,7.3148 1.9188,9.3188 C2.9098,10.3098 4.2308,10.8158 5.5298,10.8158 C6.6088,10.8158 7.7098,10.4638 8.6128,9.7808 L9.1638,10.3318 L8.9658,10.5298 L12.7968,14.3398 C12.9948,14.5378 13.2368,14.6258 13.4788,14.6258 C13.7208,14.6258 13.9638,14.5378 14.1628,14.3398 C14.5368,13.9648 14.5368,13.3488 14.1628,12.9738" id="Fill-1" fill="#FFFFFF" mask="url(#mask-2)"></path>
                    </g>
                    <path d="M2.9291,8.7956 L6.5841,8.7956 C6.6951,8.4206 6.8481,8.0466 7.0461,7.6946 L2.9291,7.6946 C2.6421,7.6946 2.3781,7.9366 2.3781,8.2446 C2.3781,8.5536 2.6201,8.7956 2.9291,8.7956" id="Fill-4" fill="#A5AEBF"></path>
                    <path d="M2.3344,17.0534 C2.3344,17.3614 2.5764,17.6034 2.8854,17.6034 L10.3944,17.6034 C10.7014,17.6034 10.9444,17.3614 10.9444,17.0534 C10.9444,16.7444 10.7014,16.5024 10.3944,16.5024 L2.8854,16.5024 C2.5984,16.5024 2.3344,16.7444 2.3344,17.0534" id="Fill-6" fill="#A5AEBF"></path>
                    <g id="Group-10" transform="translate(0.000000, 0.916000)">
                        <mask id="mask-4" fill="white">
                            <use xlink:href="#path-3"></use>
                        </mask>
                        <g id="Clip-9"></g>
                        <path d="M13.9174,16.6657 C13.9174,17.3487 13.3664,17.8987 12.6844,17.8987 L2.3554,17.8987 C1.6734,17.8987 1.1234,17.3487 1.1234,16.6657 L1.1234,5.3027 L3.0824,5.3027 C4.3594,5.3027 5.4174,4.2457 5.4174,2.9687 L5.4174,1.1857 L12.7054,1.1857 C13.3894,1.1857 13.9384,1.7357 13.9384,2.4177 L13.9384,3.6737 C14.3134,3.7617 14.6884,3.8937 15.0404,4.0477 L15.0404,2.4177 C15.0404,1.1187 14.0054,0.0837 12.7054,0.0837 L5.0644,0.0837 C4.9334,0.0837 4.8004,0.1057 4.6684,0.1497 C4.5364,0.1937 4.4264,0.2827 4.3384,0.3707 L0.3304,4.2237 C0.2204,4.3117 0.1534,4.4437 0.0884,4.5767 C0.0214,4.7077 0.0004,4.8407 0.0004,4.9947 L0.0004,16.6657 C0.0004,17.9647 1.0344,18.9997 2.3344,18.9997 L12.6844,18.9997 C13.9824,18.9997 15.0184,17.9647 15.0184,16.6657 L15.0184,15.4107 C14.6654,15.5647 14.2914,15.6967 13.9174,15.7847 L13.9174,16.6657 Z" id="Fill-8" fill="#A5AEBF" mask="url(#mask-4)"></path>
                    </g>
                    <path d="M7.5092,14.3005 L2.9292,14.3005 C2.6202,14.3005 2.3782,14.5435 2.3782,14.8515 C2.3782,15.1595 2.6202,15.4015 2.9292,15.4015 L8.5442,15.4015 C8.3902,15.2915 8.2582,15.1595 8.1252,15.0275 C7.9052,14.7855 7.7072,14.5435 7.5092,14.3005" id="Fill-11" fill="#A5AEBF"></path>
                    <path d="M2.9291,10.9977 L6.3201,10.9977 C6.3201,10.8657 6.2981,10.7547 6.2981,10.6227 C6.2981,10.3807 6.3201,10.1387 6.3421,9.8967 L2.9291,9.8967 C2.6201,9.8967 2.3781,10.1387 2.3781,10.4467 C2.3781,10.7547 2.6201,10.9977 2.9291,10.9977" id="Fill-13" fill="#A5AEBF"></path>
                    <path d="M13.5424,12.5612 C13.4774,12.5832 13.4104,12.6272 13.3444,12.6712 C13.2564,12.6932 13.1684,12.7372 13.0804,12.7372 C12.9704,12.7592 12.9034,12.6932 12.8594,12.5832 C12.8384,12.4952 12.8384,12.4292 12.8384,12.3412 C12.8594,12.1652 12.8824,12.0102 12.9264,11.8342 C13.0144,11.3282 13.1024,10.8212 13.1904,10.3372 C13.2124,10.2052 13.2344,10.0722 13.2344,9.9182 C13.2344,9.7642 13.1244,9.6762 12.9704,9.6762 L12.2874,9.6762 L11.6484,9.6762 C11.6054,9.6762 11.5384,9.6762 11.4944,9.6982 C11.3854,9.7202 11.3404,9.7642 11.3404,9.8532 C11.3404,9.9182 11.3624,9.9842 11.4734,10.0282 C11.5384,10.0502 11.6274,10.0502 11.7154,10.0722 C11.8914,10.0952 11.9574,10.1612 11.9574,10.3372 L11.9574,10.4252 C11.8914,10.8652 11.8034,11.3062 11.7364,11.7462 C11.6924,11.9882 11.6484,12.2522 11.6274,12.4952 C11.5824,12.8692 11.9354,13.2222 12.2214,13.2662 C12.3974,13.2882 12.5734,13.2882 12.7284,13.2882 C13.1024,13.2882 13.4104,13.1332 13.6524,12.8692 C13.6964,12.8252 13.7404,12.7592 13.7404,12.6932 C13.7404,12.6052 13.6524,12.5392 13.5424,12.5612" id="Fill-15" fill="#A5AEBF"></path>
                    <path d="M12.7055,9.3898 C13.0805,9.3898 13.4105,9.0818 13.4105,8.6848 C13.4105,8.2888 13.1015,7.9808 12.7055,7.9808 C12.3095,7.9808 12.0015,8.2888 12.0015,8.6848 C12.0015,9.0598 12.3095,9.3678 12.7055,9.3898" id="Fill-17" fill="#A5AEBF"></path>
                    <path d="M8.1479,6.2409 C8.4339,5.9549 8.7429,5.7129 9.0499,5.4919 L7.0459,5.4919 C6.7389,5.4919 6.4969,5.7349 6.4969,6.0429 C6.4969,6.3509 6.7389,6.5939 7.0459,6.5939 L7.8179,6.5939 C7.9269,6.4829 8.0159,6.3509 8.1479,6.2409" id="Fill-19" fill="#A5AEBF"></path>
                    <path d="M2.9291,13.1994 L6.8701,13.1994 C6.7161,12.8474 6.5841,12.4724 6.4961,12.0984 L2.9291,12.0984 C2.6421,12.0984 2.3781,12.3414 2.3781,12.6494 C2.3781,12.9574 2.6201,13.1994 2.9291,13.1994" id="Fill-21" fill="#A5AEBF"></path>
                </g>
            </g>
        </g>
    </g>
</svg>