<?xml version="1.0" encoding="UTF-8"?>
<svg width="28px" height="16px" viewBox="0 0 28 16" version="1.1" xmlns="http://www.w3.org/2000/svg" xmlns:xlink="http://www.w3.org/1999/xlink">
    <title>682D2D6E-5C3F-45E9-B36C-7346FFD99F27@1x</title>
    <defs>
        <polygon id="path-1" points="0.0004 0.001 27.9614 0.001 27.9614 16.0002 0.0004 16.0002"></polygon>
        <path d="M13.98,0 C7.706,0 2.394,2.973 0.116,7.757 L0.116,7.757 L0,8 L0.116,8.242 C2.394,13.028 7.706,16.001 13.98,16.001 L13.98,16.001 C20.255,16.001 25.567,13.028 27.846,8.242 L27.846,8.242 L27.962,8 L27.846,7.757 C25.567,2.973 20.255,0 13.98,0 Z M1.285,8 C3.434,3.763 8.27,1.142 13.98,1.142 L13.98,1.142 C19.691,1.142 24.527,3.763 26.676,8 L26.676,8 C24.527,12.237 19.691,14.857 13.98,14.857 L13.98,14.857 C8.27,14.857 3.434,12.237 1.285,8 L1.285,8 Z" id="path-3"></path>
        <path d="M0.116,7.757 L0,8 L0.116,8.242 C2.394,13.028 7.706,16.001 13.98,16.001 L13.98,16.001 C20.255,16.001 25.567,13.028 27.846,8.242 L27.846,8.242 L27.962,8 L27.846,7.757 C25.567,2.973 20.255,0 13.98,0 L13.98,0 C7.706,0 2.394,2.973 0.116,7.757 L0.116,7.757 Z M1.285,8 C3.434,3.763 8.27,1.142 13.98,1.142 L13.98,1.142 C19.691,1.142 24.527,3.763 26.676,8 L26.676,8 C24.527,12.237 19.691,14.857 13.98,14.857 L13.98,14.857 C8.27,14.857 3.434,12.237 1.285,8 L1.285,8 Z" id="path-5"></path>
        <path d="M0.329,7.791 C0.329,11.887 3.712,15.219 7.869,15.219 L7.869,15.219 C12.027,15.219 15.41,11.887 15.41,7.791 L15.41,7.791 C15.41,3.695 12.027,0.362 7.869,0.362 L7.869,0.362 C3.712,0.362 0.329,3.695 0.329,7.791 L0.329,7.791 Z M1.489,7.791 C1.489,4.325 4.351,1.505 7.869,1.505 L7.869,1.505 C11.387,1.505 14.249,4.325 14.249,7.791 L14.249,7.791 C14.249,11.257 11.387,14.076 7.869,14.076 L7.869,14.076 C4.351,14.076 1.489,11.257 1.489,7.791 L1.489,7.791 Z" id="path-7"></path>
        <path d="M0.501,4 C0.501,5.891 2.062,7.429 3.981,7.429 L3.981,7.429 C5.901,7.429 7.461,5.891 7.461,4 L7.461,4 C7.461,2.11 5.901,0.572 3.981,0.572 L3.981,0.572 C2.062,0.572 0.501,2.11 0.501,4 L0.501,4 Z M1.661,4 C1.661,2.74 2.701,1.715 3.981,1.715 L3.981,1.715 C5.261,1.715 6.301,2.74 6.301,4 L6.301,4 C6.301,5.261 5.261,6.286 3.981,6.286 L3.981,6.286 C2.701,6.286 1.661,5.261 1.661,4 L1.661,4 Z" id="path-9"></path>
    </defs>
    <g id="---Developers" stroke="none" stroke-width="1" fill="none" fill-rule="evenodd">
        <g id="Developers---Governance" transform="translate(-35.000000, -233.000000)">
            <g id="Group-12" transform="translate(32.000000, 223.000000)">
                <g id="Group-22" transform="translate(3.000000, 10.000000)">
                    <g id="Group-3">
                        <mask id="mask-2" fill="white">
                            <use xlink:href="#path-1"></use>
                        </mask>
                        <g id="Clip-2"></g>
                        <path d="M13.9804,16.0002 C7.7064,16.0002 2.3944,13.0282 0.1154,8.2432 L0.0004,8.0002 L0.1154,7.7572 C2.3944,2.9732 7.7064,0.0002 13.9804,0.0002 C20.2544,0.0002 25.5664,2.9732 27.8454,7.7572 L27.9614,8.0002 L27.8454,8.2432 C25.5664,13.0282 20.2544,16.0002 13.9804,16.0002 M1.2854,8.0002 C3.4344,12.2372 8.2694,14.8572 13.9804,14.8572 C19.6914,14.8572 24.5274,12.2372 26.6764,8.0002 C24.5274,3.7632 19.6914,1.1432 13.9804,1.1432 C8.2694,1.1432 3.4344,3.7632 1.2854,8.0002" id="Fill-1" fill="#432B96" mask="url(#mask-2)"></path>
                    </g>
                    <g id="Group-6">
                        <mask id="mask-4" fill="white">
                            <use xlink:href="#path-3"></use>
                        </mask>
                        <g id="Clip-5"></g>
                        <polygon id="Fill-4" fill="#432B96" mask="url(#mask-4)" points="-0.52 16 28.48 16 28.48 0 -0.52 0"></polygon>
                    </g>
                    <g id="Group-9">
                        <mask id="mask-6" fill="white">
                            <use xlink:href="#path-5"></use>
                        </mask>
                        <g id="Clip-8"></g>
                        <polygon id="Fill-7" fill="#432B96" mask="url(#mask-6)" points="-5 21 32.961 21 32.961 -5 -5 -5"></polygon>
                    </g>
                    <path d="M13.8696,15.2194 C9.7126,15.2194 6.3296,11.8864 6.3296,7.7904 C6.3296,3.6954 9.7126,0.3624 13.8696,0.3624 C18.0266,0.3624 21.4096,3.6954 21.4096,7.7904 C21.4096,11.8864 18.0266,15.2194 13.8696,15.2194 M13.8696,1.5054 C10.3516,1.5054 7.4896,4.3244 7.4896,7.7904 C7.4896,11.2564 10.3516,14.0764 13.8696,14.0764 C17.3876,14.0764 20.2496,11.2564 20.2496,7.7904 C20.2496,4.3244 17.3876,1.5054 13.8696,1.5054" id="Fill-10" fill="#7269AE"></path>
                    <g id="Group-15" transform="translate(6.000000, 0.000000)">
                        <mask id="mask-8" fill="white">
                            <use xlink:href="#path-7"></use>
                        </mask>
                        <g id="Clip-13"></g>
                        <polygon id="Fill-12" fill="#7269AE" mask="url(#mask-8)" points="-6.52 16 22.48 16 22.48 0 -6.52 0"></polygon>
                        <polygon id="Fill-14" fill="#7269AE" mask="url(#mask-8)" points="-4.67 20.219 20.41 20.219 20.41 -4.638 -4.67 -4.638"></polygon>
                    </g>
                    <path d="M13.9814,11.4294 C12.0624,11.4294 10.5014,9.8914 10.5014,8.0004 C10.5014,6.1104 12.0624,4.5724 13.9814,4.5724 C15.9004,4.5724 17.4614,6.1104 17.4614,8.0004 C17.4614,9.8914 15.9004,11.4294 13.9814,11.4294 M13.9814,5.7154 C12.7014,5.7154 11.6614,6.7404 11.6614,8.0004 C11.6614,9.2614 12.7014,10.2864 13.9814,10.2864 C15.2604,10.2864 16.3014,9.2614 16.3014,8.0004 C16.3014,6.7404 15.2604,5.7154 13.9814,5.7154" id="Fill-16" fill="#BBE2D5"></path>
                    <g id="Group-21" transform="translate(10.000000, 4.000000)">
                        <mask id="mask-10" fill="white">
                            <use xlink:href="#path-9"></use>
                        </mask>
                        <g id="Clip-19"></g>
                        <polygon id="Fill-18" fill="#BBE2D5" mask="url(#mask-10)" points="-10.52 12 18.48 12 18.48 -4 -10.52 -4"></polygon>
                        <polygon id="Fill-20" fill="#BBE2D5" mask="url(#mask-10)" points="-4.499 12.429 12.461 12.429 12.461 -4.428 -4.499 -4.428"></polygon>
                    </g>
                </g>
            </g>
        </g>
    </g>
</svg>