<?xml version="1.0" encoding="UTF-8"?>
<svg width="22px" height="24px" viewBox="0 0 22 24" version="1.1" xmlns="http://www.w3.org/2000/svg" xmlns:xlink="http://www.w3.org/1999/xlink">
    <title>73F0067B-0C46-414D-B951-A97CC8DF917A@1x</title>
    <defs>
        <path d="M5.834,0.733 C5.602,0.733 5.395,0.917 5.372,1.149 L5.372,1.149 L5.211,2.649 C5.211,2.696 5.163,2.741 5.119,2.764 L5.119,2.764 C4.956,2.833 4.794,2.903 4.633,2.973 L4.633,2.973 C4.587,2.996 4.517,2.996 4.494,2.949 L4.494,2.949 L3.318,2.002 C3.133,1.841 2.856,1.864 2.696,2.025 L2.696,2.025 L1.771,2.949 C1.611,3.11 1.588,3.387 1.748,3.572 L1.748,3.572 L2.696,4.748 C2.719,4.794 2.74,4.841 2.719,4.887 L2.719,4.887 L2.51,5.373 C2.487,5.417 2.441,5.463 2.396,5.463 L2.396,5.463 L0.895,5.626 C0.663,5.649 0.48,5.856 0.48,6.088 L0.48,6.088 L0.48,7.38 C0.48,7.61 0.663,7.819 0.895,7.842 L0.895,7.842 L2.396,8.002 C2.441,8.002 2.487,8.049 2.51,8.095 L2.51,8.095 C2.58,8.256 2.649,8.418 2.719,8.579 L2.719,8.579 C2.74,8.625 2.74,8.695 2.696,8.718 L2.696,8.718 L1.748,9.894 C1.588,10.08 1.611,10.356 1.771,10.519 L1.771,10.519 L2.696,11.441 C2.856,11.603 3.133,11.626 3.318,11.464 L3.318,11.464 L4.494,10.519 C4.541,10.495 4.587,10.472 4.633,10.495 L4.633,10.495 C4.794,10.565 4.956,10.634 5.119,10.702 L5.119,10.702 C5.163,10.726 5.211,10.772 5.211,10.818 L5.211,10.818 L5.372,12.319 C5.395,12.549 5.602,12.733 5.834,12.733 L5.834,12.733 L7.126,12.733 C7.356,12.733 7.565,12.549 7.588,12.319 L7.588,12.319 L7.749,10.818 C7.749,10.772 7.795,10.726 7.842,10.702 L7.842,10.702 C8.002,10.634 8.165,10.565 8.325,10.495 L8.325,10.495 C8.372,10.472 8.441,10.472 8.464,10.519 L8.464,10.519 L9.642,11.464 C9.826,11.626 10.102,11.603 10.265,11.441 L10.265,11.441 L11.187,10.519 C11.348,10.356 11.371,10.08 11.21,9.894 L11.21,9.894 L10.265,8.718 C10.218,8.672 10.218,8.625 10.242,8.579 L10.242,8.579 C10.311,8.418 10.379,8.256 10.449,8.095 L10.449,8.095 C10.472,8.049 10.518,8.002 10.564,8.002 L10.564,8.002 L12.063,7.842 C12.295,7.819 12.479,7.61 12.479,7.38 L12.479,7.38 L12.479,6.088 C12.479,5.856 12.295,5.649 12.063,5.626 L12.063,5.626 L10.588,5.463 C10.541,5.463 10.495,5.417 10.472,5.373 L10.472,5.373 L10.265,4.887 C10.242,4.841 10.242,4.771 10.286,4.748 L10.286,4.748 L11.234,3.572 C11.396,3.387 11.371,3.11 11.21,2.949 L11.21,2.949 L10.286,2.025 C10.126,1.864 9.849,1.841 9.663,2.002 L9.663,2.002 L8.488,2.949 C8.441,2.973 8.395,2.996 8.348,2.973 L8.348,2.973 C8.188,2.903 8.025,2.833 7.865,2.764 L7.865,2.764 C7.818,2.741 7.772,2.696 7.772,2.649 L7.772,2.649 L7.588,1.149 C7.565,0.917 7.356,0.733 7.126,0.733 L7.126,0.733 L5.834,0.733 Z M4.241,6.734 C4.241,5.51 5.233,4.495 6.479,4.495 L6.479,4.495 C7.702,4.495 8.718,5.487 8.718,6.734 L8.718,6.734 C8.718,7.956 7.702,8.971 6.479,8.971 L6.479,8.971 C5.256,8.971 4.241,7.979 4.241,6.734 L4.241,6.734 Z" id="path-1"></path>
        <path d="M13.705,0.812 C13.491,0.93 13.372,1.144 13.372,1.382 L13.372,1.382 L13.372,2.285 L11.021,2.285 C5.205,2.308 0.479,7.035 0.479,12.854 L0.479,12.854 C0.479,13.33 0.883,13.732 1.359,13.732 L1.359,13.732 C1.832,13.732 2.237,13.33 2.237,12.854 L2.237,12.854 C2.237,8.008 6.177,4.065 11.021,4.065 L11.021,4.065 L13.372,4.065 L13.372,4.969 C13.372,5.206 13.491,5.42 13.705,5.539 L13.705,5.539 C13.799,5.585 13.918,5.61 14.014,5.61 L14.014,5.61 C14.132,5.61 14.251,5.585 14.369,5.514 L14.369,5.514 L17.171,3.734 C17.362,3.614 17.479,3.401 17.479,3.187 L17.479,3.187 C17.479,2.974 17.362,2.76 17.171,2.641 L17.171,2.641 L14.369,0.835 C14.265,0.77 14.14,0.733 14.012,0.733 L14.012,0.733 C13.907,0.733 13.801,0.758 13.705,0.812 L13.705,0.812 Z" id="path-3"></path>
        <path d="M1.205,0.757 C0.717,0.852 0.399,1.324 0.496,1.796 L0.496,1.796 C0.569,2.174 0.621,2.551 0.669,2.931 L0.669,2.931 C0.694,3.379 1.108,3.734 1.571,3.734 L1.571,3.734 L1.646,3.734 C2.133,3.686 2.524,3.285 2.476,2.788 L2.476,2.788 C2.426,2.339 2.353,1.891 2.255,1.441 L2.255,1.441 C2.158,1.018 1.792,0.733 1.376,0.733 L1.376,0.733 C1.328,0.733 1.255,0.733 1.205,0.757 L1.205,0.757 Z" id="path-5"></path>
        <path d="M1.531,0.733 C1.304,0.733 1.051,0.809 0.88,0.937 L0.88,0.937 C0.655,1.09 0.542,1.321 0.486,1.576 L0.486,1.576 C0.456,1.831 0.542,2.086 0.711,2.265 L0.711,2.265 C1.022,2.596 1.304,2.927 1.531,3.285 L1.531,3.285 C1.812,3.719 2.491,3.873 2.972,3.591 L2.972,3.591 C3.199,3.464 3.368,3.26 3.452,3.005 L3.452,3.005 C3.51,2.749 3.482,2.494 3.313,2.29 L3.313,2.29 C3.03,1.882 2.718,1.473 2.351,1.09 L2.351,1.09 C2.182,0.887 1.927,0.784 1.643,0.733 L1.643,0.733 L1.531,0.733 Z" id="path-7"></path>
        <path d="M0.889,1.387 C0.803,1.75 0.672,2.137 0.543,2.477 L0.543,2.477 C0.371,2.936 0.564,3.469 0.977,3.663 L0.977,3.663 C1.388,3.856 1.865,3.638 2.037,3.179 L2.037,3.179 C2.209,2.742 2.34,2.306 2.448,1.848 L2.448,1.848 C2.514,1.604 2.471,1.362 2.383,1.168 L2.383,1.168 C2.275,0.975 2.103,0.831 1.886,0.758 L1.886,0.758 C1.82,0.733 1.734,0.733 1.669,0.733 L1.669,0.733 C1.321,0.733 0.998,1 0.889,1.387 L0.889,1.387 Z" id="path-9"></path>
        <path d="M2.468,0.733 C2.201,0.733 1.961,0.869 1.774,1.059 L1.774,1.059 C1.481,1.387 1.161,1.685 0.84,1.958 L0.84,1.958 C0.414,2.313 0.359,2.939 0.707,3.375 L0.707,3.375 C1.055,3.782 1.694,3.863 2.095,3.51 L2.095,3.51 C2.494,3.184 2.869,2.801 3.215,2.42 L3.215,2.42 C3.589,2.013 3.563,1.359 3.162,1.006 L3.162,1.006 C2.975,0.842 2.735,0.733 2.494,0.733 L2.494,0.733 L2.468,0.733 Z" id="path-11"></path>
        <path d="M0.913,0.85 C0.697,0.967 0.555,1.155 0.508,1.367 L0.508,1.367 C0.389,1.833 0.651,2.302 1.125,2.443 L1.125,2.443 C1.552,2.561 2.002,2.653 2.478,2.725 L2.478,2.725 C2.951,2.794 3.404,2.443 3.473,1.975 L3.473,1.975 C3.498,1.741 3.45,1.506 3.307,1.342 L3.307,1.342 C3.142,1.155 2.928,1.014 2.691,0.991 L2.691,0.991 C2.31,0.944 1.931,0.873 1.575,0.757 L1.575,0.757 C1.504,0.734 1.409,0.734 1.338,0.734 L1.338,0.734 C1.196,0.734 1.03,0.78 0.913,0.85 L0.913,0.85 Z" id="path-13"></path>
        <path d="M1.411,0.733 C1.153,0.733 0.919,0.874 0.739,1.069 L0.739,1.069 C0.557,1.265 0.479,1.544 0.479,1.824 L0.479,1.824 C0.479,2.104 0.61,2.356 0.79,2.551 L0.79,2.551 C1.153,2.916 1.54,3.252 1.954,3.56 L1.954,3.56 C2.369,3.868 2.99,3.755 3.301,3.308 L3.301,3.308 C3.611,2.833 3.508,2.188 3.068,1.853 L3.068,1.853 C2.706,1.601 2.395,1.292 2.084,1.013 L2.084,1.013 C1.903,0.845 1.67,0.733 1.438,0.733 L1.438,0.733 L1.411,0.733 Z" id="path-15"></path>
        <path d="M0.99,0.783 C0.589,0.953 0.38,1.465 0.528,1.954 L0.528,1.954 C0.673,2.393 0.821,2.833 1.01,3.247 L1.01,3.247 C1.198,3.686 1.682,3.856 2.061,3.638 L2.061,3.638 C2.439,3.417 2.586,2.856 2.398,2.417 L2.398,2.417 C2.25,2.076 2.103,1.71 1.998,1.344 L1.998,1.344 C1.935,1.124 1.788,0.928 1.598,0.831 L1.598,0.831 C1.493,0.783 1.389,0.733 1.263,0.733 L1.263,0.733 C1.179,0.733 1.073,0.758 0.99,0.783 L0.99,0.783 Z" id="path-17"></path>
        <path d="M2.269,0.778 C1.912,0.891 1.527,1.003 1.168,1.071 L1.168,1.071 C0.928,1.116 0.737,1.252 0.618,1.433 L0.618,1.433 C0.497,1.613 0.451,1.838 0.497,2.063 L0.497,2.063 C0.593,2.514 1.097,2.807 1.552,2.718 L1.552,2.718 C2.006,2.626 2.461,2.514 2.892,2.356 L2.892,2.356 C3.107,2.289 3.298,2.131 3.394,1.928 L3.394,1.928 C3.492,1.726 3.515,1.5 3.419,1.297 L3.419,1.297 C3.298,1.095 3.155,0.914 2.94,0.823 L2.94,0.823 C2.821,0.778 2.702,0.733 2.556,0.733 L2.556,0.733 C2.461,0.733 2.365,0.757 2.269,0.778 L2.269,0.778 Z" id="path-19"></path>
    </defs>
    <g id="---Developers" stroke="none" stroke-width="1" fill="none" fill-rule="evenodd">
        <g id="Developers---Governance" transform="translate(-38.000000, -386.000000)" shape-rendering="optimizeSpeed">
            <g id="Group-12" transform="translate(32.000000, 223.000000)">
                <g id="Group-10" transform="translate(6.000000, 163.000000)">
                    <g id="Group-36" transform="translate(5.000000, 6.000000)">
                        <mask id="mask-2" fill="white">
                            <use xlink:href="#path-1"></use>
                        </mask>
                        <g id="Clip-35"></g>
                        <polygon id="Fill-34" fill="#BBE2D5" mask="url(#mask-2)" points="-4.821 18.493 17.179 18.493 17.179 -5.507 -4.821 -5.507"></polygon>
                    </g>
                    <g id="Group-44">
                        <mask id="mask-4" fill="white">
                            <use xlink:href="#path-3"></use>
                        </mask>
                        <g id="Clip-43"></g>
                        <polygon id="Fill-42" fill="#432C8F" mask="url(#mask-4)" points="0.179 24.493 22.179 24.493 22.179 0.493 0.179 0.493"></polygon>
                    </g>
                    <g id="Group-52" transform="translate(19.000000, 9.000000)">
                        <mask id="mask-6" fill="white">
                            <use xlink:href="#path-5"></use>
                        </mask>
                        <g id="Clip-51"></g>
                        <polygon id="Fill-50" fill="#7169AD" mask="url(#mask-6)" points="-18.821 15.493 3.179 15.493 3.179 -8.507 -18.821 -8.507"></polygon>
                    </g>
                    <g id="Group-60" transform="translate(17.000000, 5.000000)">
                        <mask id="mask-8" fill="white">
                            <use xlink:href="#path-7"></use>
                        </mask>
                        <g id="Clip-59"></g>
                        <polygon id="Fill-58" fill="#7169AD" mask="url(#mask-8)" points="-16.821 19.493 5.179 19.493 5.179 -4.507 -16.821 -4.507"></polygon>
                    </g>
                    <g id="Group-68" transform="translate(19.000000, 14.000000)">
                        <mask id="mask-10" fill="white">
                            <use xlink:href="#path-9"></use>
                        </mask>
                        <g id="Clip-67"></g>
                        <polygon id="Fill-66" fill="#7169AD" mask="url(#mask-10)" points="-18.821 10.493 3.179 10.493 3.179 -13.507 -18.821 -13.507"></polygon>
                    </g>
                    <g id="Group-76" transform="translate(16.000000, 18.000000)">
                        <mask id="mask-12" fill="white">
                            <use xlink:href="#path-11"></use>
                        </mask>
                        <g id="Clip-75"></g>
                        <polygon id="Fill-74" fill="#7169AD" mask="url(#mask-12)" points="-15.821 6.493 6.179 6.493 6.179 -17.507 -15.821 -17.507"></polygon>
                    </g>
                    <g id="Group-84" transform="translate(7.000000, 21.000000)">
                        <mask id="mask-14" fill="white">
                            <use xlink:href="#path-13"></use>
                        </mask>
                        <g id="Clip-83"></g>
                        <polygon id="Fill-82" fill="#7169AD" mask="url(#mask-14)" points="-6.821 3.493 15.179 3.493 15.179 -20.507 -6.821 -20.507"></polygon>
                    </g>
                    <g id="Group-92" transform="translate(3.000000, 18.000000)">
                        <mask id="mask-16" fill="white">
                            <use xlink:href="#path-15"></use>
                        </mask>
                        <g id="Clip-91"></g>
                        <polygon id="Fill-90" fill="#7169AD" mask="url(#mask-16)" points="-2.821 6.493 19.179 6.493 19.179 -17.507 -2.821 -17.507"></polygon>
                    </g>
                    <g id="Group-100" transform="translate(1.000000, 14.000000)">
                        <mask id="mask-18" fill="white">
                            <use xlink:href="#path-17"></use>
                        </mask>
                        <g id="Clip-99"></g>
                        <polygon id="Fill-98" fill="#7169AD" mask="url(#mask-18)" points="-0.821 10.493 21.179 10.493 21.179 -13.507 -0.821 -13.507"></polygon>
                    </g>
                    <g id="Group-108" transform="translate(12.000000, 21.000000)">
                        <mask id="mask-20" fill="white">
                            <use xlink:href="#path-19"></use>
                        </mask>
                        <g id="Clip-107"></g>
                        <polygon id="Fill-106" fill="#7169AD" mask="url(#mask-20)" points="-11.821 4.493 10.179 4.493 10.179 -19.507 -11.821 -19.507"></polygon>
                    </g>
                </g>
            </g>
        </g>
    </g>
</svg>
