<?xml version="1.0" encoding="UTF-8"?>
<svg width="30px" height="30px" viewBox="0 0 30 30" version="1.1" xmlns="http://www.w3.org/2000/svg" xmlns:xlink="http://www.w3.org/1999/xlink">
    <title>12E32B84-27D0-49C8-9C15-BB9420D8CF78</title>
    <defs>
        <polygon id="path-1" points="0.358462169 0.167604068 22.3947368 0.167604068 22.3947368 21.3888278 0.358462169 21.3888278"></polygon>
    </defs>
    <g id="---Developers" stroke="none" stroke-width="1" fill="none" fill-rule="evenodd">
        <g id="Icons" transform="translate(-1091.000000, -1123.000000)">
            <g id="Icon/Home" transform="translate(1091.000000, 1123.000000)">
                <g id="Group-8" transform="translate(4.000000, 3.000000)">
                    <path d="M11,14.7613832 C9.7946,14.7613832 8.8178,13.7485173 8.8178,12.5 C8.8178,11.2508609 9.7946,10.2392386 11,10.2392386 C12.2054,10.2392386 13.1822,11.2508609 13.1822,12.5 C13.1822,13.7485173 12.2054,14.7613832 11,14.7613832 M16.8608,11.087335 L15.4496,11.087335 C15.3968,11.087335 15.3488,11.0562464 15.3254,11.0071265 L14.8628,10.0495982 C14.8364,9.99426057 14.8466,9.92710924 14.8886,9.88296346 L15.8108,8.92792233 C15.8648,8.87134111 15.8648,8.78056246 15.8108,8.72398125 L14.3708,7.23235125 C14.3168,7.17639181 14.2286,7.17639181 14.174,7.23235125 L13.253,8.18739239 C13.2104,8.2309164 13.1456,8.24210828 13.0916,8.21475033 L12.1676,7.73536445 C12.1208,7.71111536 12.0908,7.66075187 12.0908,7.60603597 L12.0908,6.144251 C12.0908,6.06466424 12.0284,6 11.9516,6 L11,6 L10.0484,6 C9.9716,6 9.9092,6.06466424 9.9092,6.144251 L9.9092,7.60603597 C9.9092,7.66075187 9.8792,7.71111536 9.8324,7.73536445 L8.9084,8.21475033 C8.8544,8.24210828 8.7896,8.2309164 8.747,8.18739239 L7.6856,7.08685671 C7.631,7.03027549 7.5428,7.03027549 7.4882,7.08685671 L6.0488,8.5784867 C5.9948,8.63444615 5.9948,8.72646834 6.0488,8.78304955 L7.1114,9.88296346 C7.1534,9.92710924 7.1636,9.99426057 7.1372,10.0495982 L6.6746,11.0071265 C6.6512,11.0562464 6.6032,11.087335 6.5504,11.087335 L5.1392,11.087335 C5.0624,11.087335 5,11.1513775 5,11.2309642 L5,13.7690358 C5,13.8486225 5.0624,13.9132868 5.1392,13.9132868 L6.5504,13.9132868 C6.6032,13.9132868 6.6512,13.9443754 6.6746,13.9934953 L7.1372,14.9510235 C7.1636,15.0063612 7.1534,15.0735125 7.1114,15.1170365 L6.1892,16.0720777 C6.1352,16.1286589 6.1352,16.2200593 6.1892,16.2766405 L7.6292,17.7682705 C7.6832,17.82423 7.7714,17.82423 7.826,17.7682705 L8.747,16.8132294 C8.7896,16.7690836 8.8544,16.7585135 8.9084,16.7858714 L9.8324,17.2646355 C9.8792,17.2888846 9.9092,17.3392481 9.9092,17.393964 L9.9092,18.8563708 C9.9092,18.9359575 9.9716,19 10.0484,19 L11,19 L11.9516,19 C12.0284,19 12.0908,18.9359575 12.0908,18.8563708 L12.0908,17.393964 C12.0908,17.3392481 12.1208,17.2888846 12.1676,17.2646355 L13.0916,16.7858714 C13.1456,16.7585135 13.2104,16.7690836 13.253,16.8132294 L14.3144,17.9131433 C14.369,17.9697245 14.4572,17.9697245 14.5118,17.9131433 L15.9512,16.4221351 C16.0052,16.3655539 16.0052,16.2741534 15.9512,16.2175722 L14.8886,15.1170365 C14.8466,15.0735125 14.8364,15.0063612 14.8628,14.9510235 L15.3254,13.9934953 C15.3488,13.9443754 15.3968,13.9132868 15.4496,13.9132868 L16.8608,13.9132868 C16.9376,13.9132868 17,13.8486225 17,13.7690358 L17,11.2309642 C17,11.1513775 16.9376,11.087335 16.8608,11.087335" id="Fill-1" fill="#FFFFFF"></path>
                    <g id="Group-5" transform="translate(0.000000, 2.000000)">
                        <mask id="mask-2" fill="white">
                            <use xlink:href="#path-1"></use>
                        </mask>
                        <g id="Clip-4"></g>
                        <path d="M18.5515579,3.36410556 C18.3590842,3.36410556 18.1660053,3.29016111 18.0183211,3.14227222 C17.4191105,2.54032778 16.7430316,2.01966111 16.0088474,1.59432778 C15.6462947,1.38532778 15.5210053,0.917827778 15.7286105,0.551772222 C15.9368211,0.186327778 16.3992421,0.0579944444 16.7617947,0.27005 C17.6091632,0.760772222 18.3917684,1.36271667 19.0847947,2.05816111 C19.3813737,2.35577222 19.3831895,2.83977222 19.0884263,3.13860556 C18.9407421,3.28893889 18.7464526,3.36410556 18.5515579,3.36410556 M21.2728211,8.07455 C20.9399263,8.07455 20.6348737,7.85149444 20.5434789,7.51110556 C20.3219526,6.68855 19.9932947,5.89777222 19.5671895,5.15955 C19.3559526,4.79593889 19.4776105,4.32782778 19.8389526,4.11516111 C20.1996895,3.90310556 20.6627158,4.02532778 20.8733474,4.39016111 C21.3666368,5.24266111 21.7467421,6.15810556 22.0033737,7.11021667 C22.1135316,7.51721667 21.8750579,7.93705 21.4719526,8.04766111 C21.4053737,8.06599444 21.3387947,8.07455 21.2728211,8.07455 M21.2861368,13.5733278 C21.2213737,13.5733278 21.1560053,13.5647722 21.0906368,13.5476611 C20.6863211,13.4382722 20.4466368,13.0202722 20.5549789,12.6126611 C20.7716632,11.7919389 20.8818211,10.9406611 20.8818211,10.0826611 C20.8818211,9.66099444 21.2201632,9.29555 21.6384,9.29555 C22.0560316,9.29555 22.3949789,9.61455 22.3949789,10.0362167 L22.3949789,10.0826611 C22.3949789,11.0738833 22.2672684,12.0577722 22.0166895,13.0062167 C21.9265053,13.3484389 21.6202421,13.5733278 21.2861368,13.5733278 M2.16466316,16.1351056 C1.90318947,16.1351056 1.65018947,15.9994389 1.50976842,15.7549944 C1.01768947,14.9006611 0.6394,13.9846056 0.384584211,13.0318833 C0.276242105,12.6248833 0.514715789,12.2056611 0.918426316,12.0956611 C1.32092632,11.98505 1.73674211,12.22705 1.84568947,12.6346611 C2.06600526,13.4578278 2.39284737,14.2492167 2.81774211,14.98805 C3.02776842,15.3522722 2.9049,15.8203833 2.54416316,16.0318278 C2.42432105,16.1021056 2.29358421,16.1351056 2.16466316,16.1351056 M18.5848474,18.2972167 C18.3905579,18.2972167 18.1968737,18.22205 18.0497947,18.07355 C17.7538211,17.7753278 17.7538211,17.2913278 18.0491895,16.9931056 C18.6471895,16.3881056 19.1652947,15.7073278 19.5883737,14.9684944 C19.7971895,14.6036611 20.2596105,14.4783833 20.6215579,14.6898278 C20.9835053,14.9012722 21.1075842,15.3681611 20.8981632,15.7336056 C20.4091105,16.5873278 19.8105053,17.3744389 19.1192947,18.0729389 C18.9716105,18.22205 18.7779263,18.2972167 18.5848474,18.2972167 M5.98932105,19.9857167 C5.86100526,19.9857167 5.73087368,19.9533278 5.61224211,19.8836611 C4.76668947,19.3917167 3.98650526,18.78855 3.29287368,18.0912722 C2.9969,17.79305 2.99629474,17.30905 3.29105789,17.0108278 C3.58582105,16.7119944 4.06397895,16.7107722 4.36116316,17.0083833 C4.96158421,17.6121611 5.63645263,18.1346611 6.36761053,18.5599944 C6.73016316,18.7708278 6.85424211,19.2383278 6.64542632,19.6031611 C6.50561053,19.8488278 6.2514,19.9857167 5.98932105,19.9857167 M13.9091895,21.0288833 C13.5750842,21.0288833 13.2694263,20.8039944 13.1786368,20.4623833 C13.0709,20.0553833 13.3105842,19.6367722 13.7142947,19.5273833 C14.5289789,19.3067722 15.3134,18.9779944 16.0451632,18.5496056 C16.4077158,18.3369389 16.8707421,18.4628278 17.0795579,18.82705 C17.2889789,19.1918833 17.1661105,19.6593833 16.8041632,19.8708278 C15.9567947,20.3664389 15.0489,20.7477722 14.1052947,21.0026056 C14.0405316,21.0209389 13.9745579,21.0288833 13.9091895,21.0288833 M11.2091105,21.3888278 C11.2000316,21.3888278 11.1903474,21.3888278 11.1794526,21.3882167 C10.2092158,21.3863833 9.24442632,21.2592722 8.31413684,21.0093278 C7.90982105,20.90055 7.66953158,20.48255 7.77726842,20.0749389 C7.88500526,19.6673278 8.30021579,19.4259389 8.70332105,19.5328833 C9.51255789,19.7498278 10.3520579,19.8604389 11.1976105,19.8604389 L11.2756895,19.8641056 C11.6624526,19.8989389 11.9656895,20.2264944 11.9656895,20.6249389 C11.9656895,21.0472167 11.6273474,21.3888278 11.2091105,21.3888278" id="Fill-3" fill="#EEEFF0" mask="url(#mask-2)"></path>
                    </g>
                    <path d="M14,1.82926829 L11.2608696,0 L11.2608696,1.17073171 C5.05156522,1.17073171 0,6.02868293 0,12 L1.52173913,12 C1.52173913,6.83590244 5.89095652,2.63414634 11.2608696,2.63414634 L11.2608696,4.02439024 L14,1.82926829 Z" id="Fill-6" fill="#A3ACBB"></path>
                </g>
            </g>
        </g>
    </g>
</svg>