<?xml version="1.0" encoding="UTF-8"?>
<svg width="18px" height="19px" viewBox="0 0 18 19" version="1.1" xmlns="http://www.w3.org/2000/svg" xmlns:xlink="http://www.w3.org/1999/xlink">
    <!-- Generator: Sketch 64 (93537) - https://sketch.com -->
    <title>Stop</title>
    <desc>Created with Sketch.</desc>
    <g id="Documentation" stroke="none" stroke-width="1" fill="none" fill-rule="evenodd">
        <path d="M11.5171463,18.2499946 C11.9636365,18.2499946 12.3925486,18.0707119 12.7089541,17.7543064 L17.5077708,12.9554897 C17.8241763,12.6390842 18.003459,12.2101722 18.003459,11.763682 L18.003459,6.73635021 C18.003459,6.28986003 17.8241763,5.86094794 17.5077708,5.54454244 L12.7089541,0.745725761 C12.3925486,0.429320266 11.9636365,0.250037551 11.5171463,0.250037551 L6.48631266,0.250037551 C6.03982248,0.250037551 5.61091039,0.429320266 5.29450489,0.745725761 L0.49568821,5.54104056 C0.179282715,5.85744606 0,6.28635815 0,6.73284833 L0,11.763682 C0,12.2101722 0.179282715,12.6390842 0.49568821,12.9554897 L5.29450489,17.7543064 C5.61091039,18.0707119 6.03982248,18.2499946 6.48631266,18.2499946 L11.5171463,18.2499946 Z" id="Stop" fill="#DD561A" fill-rule="nonzero"></path>
    </g>
</svg>
